PathFileType	4	(X/Y/Z)	output.trc
DataRate	CameraRate	NumFrames	NumMarkers	Units	OrigDataRate	OrigDataStartFrame	OrigNumFrames
59	59	98	1	m	59	0	98
Frame#	Time	r_lelbow_study		
		X1	Y1	Z1
1	0.0	-0.324696028754519	1.0980325220041092	-1.4885869489393573
2	0.0166667	-0.3245813420082825	1.089130354131727	-1.5021675689584326
3	0.0333333	-0.3252503705178153	1.08287934657913	-1.5106583521825128
4	0.05	-0.32522574690527867	1.08267404301891	-1.512328846416553
5	0.0666667	-0.3283152063716741	1.0835809105151266	-1.5065327908780715
6	0.0833333	-0.33117514648157287	1.0891785585310476	-1.4977631359969787
7	0.1	-0.33277601870271517	1.0975538598457644	-1.4867017661486015
8	0.1166667	-0.3362045506039652	1.1084502080440695	-1.471990433108322
9	0.1333333	-0.3370465930084434	1.1214128611085048	-1.4551465626475342
10	0.15	-0.3377151491777587	1.1360513099507172	-1.4362306973653174
11	0.1666667	-0.33934440759738593	1.1513215517279098	-1.4196202377210057
12	0.1833333	-0.34004744988316926	1.1669597234525841	-1.4055766494615682
13	0.2	-0.34128245048747785	1.1824854657744615	-1.3957316170995997
14	0.2166667	-0.342788784577658	1.1978476197506653	-1.3887648282056135
15	0.2333333	-0.3442085488599187	1.2123124495614233	-1.3832511327563504
16	0.25	-0.3457036930767757	1.2268650930675666	-1.3785833035316706
17	0.2666667	-0.346851600800146	1.2421963233969586	-1.3753305659413295
18	0.2833333	-0.34607010260583554	1.2564013440408142	-1.3714665693850048
19	0.3	-0.34355616539498823	1.2709817382024746	-1.367915387287805
20	0.3166667	-0.3386273750374076	1.2854121992937755	-1.3645648107300132
21	0.3333333	-0.3319551150261884	1.2995317779611075	-1.3619945970866063
22	0.35	-0.32418582059161755	1.3129043027365905	-1.360868328795934
23	0.3666667	-0.3154932695112617	1.3252677865840747	-1.36075254419918
24	0.3833333	-0.30687052253618113	1.3361921146383327	-1.3600929479542223
25	0.4	-0.29860822648979257	1.3463516227341223	-1.3577313261674087
26	0.4166667	-0.29035962073184257	1.355181160459369	-1.3548876870920257
27	0.4333333	-0.2840520657238419	1.3639394396505986	-1.3495531196427533
28	0.45	-0.2776866622398119	1.369749056631868	-1.3440558736671333
29	0.4666667	-0.27231598600380114	1.3766852494732824	-1.337641484680558
30	0.4833333	-0.26490893342568356	1.3806973033840506	-1.3315850754493188
31	0.5	-0.2593716169536466	1.385287834591306	-1.3244911225956533
32	0.5166667	-0.2524750974889665	1.3897764847571352	-1.3187802600885878
33	0.5333333	-0.24747004811379675	1.395566467704719	-1.3126041917083684
34	0.55	-0.24191770803989285	1.398514498864096	-1.304469645142466
35	0.5666667	-0.23643937042464697	1.4043166343822049	-1.2958243020058346
36	0.5833333	-0.2313199287518003	1.4110375178559762	-1.2855445334767448
37	0.6	-0.22674248800745164	1.4169694749937471	-1.273528012701013
38	0.6166667	-0.22260339379701363	1.4239512039158828	-1.262284288003091
39	0.6333333	-0.21942413967713778	1.4314870996199591	-1.2513271928195153
40	0.65	-0.21666801165649097	1.4367053180827698	-1.2391208712148105
41	0.6666667	-0.2146339573097757	1.4426876571919365	-1.2255324461287636
42	0.6833333	-0.21336052350624385	1.4484658890357527	-1.2106952573156102
43	0.7	-0.21251833139208542	1.4544184837900516	-1.194885543286029
44	0.7166667	-0.21170026358267835	1.4607535655000654	-1.178174021370064
45	0.7333333	-0.21164111923427717	1.4660178018260188	-1.1609135759110798
46	0.75	-0.21193006487460886	1.471031086643953	-1.1436106900484961
47	0.7666667	-0.2131524550559475	1.4756058011345967	-1.1258216242429653
48	0.7833333	-0.21404710787085446	1.4800599143342248	-1.1063942621641834
49	0.8	-0.21711586990659099	1.4836485407152393	-1.083443171400221
50	0.8166667	-0.21735080536009171	1.4867659268479385	-1.0618361896948878
51	0.8333333	-0.2184459480250794	1.4888127114279008	-1.0393945679492482
52	0.85	-0.21840494122215	1.4903203083171106	-1.0196840526929731
53	0.8666667	-0.2189417298383713	1.491471027525274	-1.001835134032491
54	0.8833333	-0.22009351432990015	1.4924057520737282	-0.9856991677200442
55	0.9	-0.22213268298585298	1.4925673210238086	-0.9710608729822545
56	0.9166667	-0.2250199179129018	1.4929216110103234	-0.9575473131436476
57	0.9333333	-0.22809280556947442	1.4917629125374128	-0.9445492017901429
58	0.95	-0.23093957962274958	1.4908926075428577	-0.933426607065259
59	0.9666667	-0.23468639095506968	1.4893508447606947	-0.9239781855659684
60	0.9833333	-0.2385195892984169	1.4864731544915113	-0.9167490507928141
61	1.0	-0.2432909932192936	1.4832494498548991	-0.9103196072631057
62	1.0166667	-0.24825799651768551	1.479216770778821	-0.9039400654230033
63	1.0333333	-0.2534024348957039	1.4744275043548838	-0.8966419085103751
64	1.05	-0.258778752792971	1.4683541631613397	-0.8893663379784746
65	1.0666667	-0.2651955492725114	1.461006860663853	-0.8830304577856032
66	1.0833333	-0.27211232270043295	1.4532999755860156	-0.8769524570354675
67	1.1	-0.28005945762854156	1.4456519752844372	-0.8716957480741221
68	1.1166667	-0.28882954060967336	1.4386070386383771	-0.8662453024635591
69	1.1333333	-0.29748496621809156	1.4313610709652251	-0.8609820624497697
70	1.15	-0.30630247568302504	1.4248462606686148	-0.8539565908014902
71	1.1666667	-0.3141353809884253	1.41707258735395	-0.8469653812126667
72	1.1833333	-0.32263874497380896	1.4091555513602194	-0.838881800954655
73	1.2	-0.33167774235463976	1.3998428673845835	-0.8314491735995712
74	1.2166667	-0.3419635363033126	1.3900348878491493	-0.8247366662614686
75	1.2333333	-0.35295619657469884	1.377296466958037	-0.8191809338273027
76	1.25	-0.36575177164059447	1.363982651419948	-0.8133587389592838
77	1.2666667	-0.37863251393522324	1.3496584002765526	-0.8071190573232389
78	1.2833333	-0.391520168257947	1.3349059506478538	-0.7999762323923808
79	1.3	-0.40387493396647833	1.3202980610153525	-0.7921561075040924
80	1.3166667	-0.4153001781745689	1.3060131318349186	-0.7842950600581502
81	1.3333333	-0.4252687709458783	1.2919363779716133	-0.7773258631409194
82	1.35	-0.43537075488536797	1.2774002334281833	-0.7706689417834599
83	1.3666667	-0.4432817278220842	1.2631456605205915	-0.7674303147207778
84	1.3833333	-0.4525955571010055	1.2467830944283709	-0.7632708501899517
85	1.4	-0.46058595114286716	1.2292285987127005	-0.7610017899796215
86	1.4166667	-0.46824586932529444	1.2103283425122773	-0.7579508136385796
87	1.4333333	-0.47483579393582054	1.1901235298640271	-0.7544101496032258
88	1.45	-0.4795008375282973	1.1694899659025342	-0.7507187767540688
89	1.4666667	-0.48211146745865363	1.1483513401593353	-0.7464995868275102
90	1.4833333	-0.4807630621596465	1.1312914316798353	-0.7426131738857594
91	1.5	-0.4805727333338952	1.1133435788179857	-0.739152539078558
92	1.5166667	-0.4793676860229624	1.0972093050191445	-0.7365414299916403
93	1.5333333	-0.4772225416933097	1.0835613754597555	-0.7339083221637319
94	1.55	-0.4756086229322717	1.0690966165219873	-0.7301779969453079
95	1.5666667	-0.47011584333049483	1.060852841917553	-0.7239686009282631
96	1.5833333	-0.4627771521559245	1.0559239465214036	-0.7179836766539474
97	1.6	-0.45445037289708023	1.0542897080712985	-0.7144488217722658
98	1.6166667	-0.44685925994928144	1.0540899823532794	-0.7136262728634886
